<?xml version="1.0" encoding="UTF-8"?>
<svg width="50px" height="50px" viewBox="0 0 50 50" version="1.1" xmlns="http://www.w3.org/2000/svg" xmlns:xlink="http://www.w3.org/1999/xlink">
    <!-- Generator: Sketch 42 (36781) - http://www.bohemiancoding.com/sketch -->
    <title>op-logo-light</title>
    <desc>Created with Sketch.</desc>
    <defs></defs>
    <g id="Symbols" stroke="none" stroke-width="1" fill="none" fill-rule="evenodd">
        <g id="op-logo-light" fill="#6393C2">
            <path d="M18.6377246,49.183213 L18.6377246,42.6827912 C20.6246299,43.3977894 22.7668128,43.7874251 25,43.7874251 C35.3760084,43.7874251 43.7874251,35.3760084 43.7874251,25 C43.7874251,14.6239916 35.3760084,6.21257485 25,6.21257485 C14.6239916,6.21257485 6.21257485,14.6239916 6.21257485,25 C6.21257485,25.0999847 6.2133559,25.1997871 6.21491222,25.2994012 L6.21257485,25.2994012 L6.21257485,41.4939037 C2.34509469,37.0921348 0,31.3199305 0,25 C0,11.1928813 11.1928813,0 25,0 C38.8071187,0 50,11.1928813 50,25 C50,38.8071187 38.8071187,50 25,50 C22.8014089,50 20.6691046,49.7161919 18.6377246,49.183213 Z M25,31.3622754 C21.4862123,31.3622754 18.6377246,28.5137877 18.6377246,25 C18.6377246,21.4862123 21.4862123,18.6377246 25,18.6377246 C28.5137877,18.6377246 31.3622754,21.4862123 31.3622754,25 C31.3622754,28.5137877 28.5137877,31.3622754 25,31.3622754 Z"></path>
        </g>
    </g>
</svg>